<svg preserveAspectRatio="none" overflow="visible" style="display: block;" width="20" height="14" viewBox="0 0 20 14" fill="none" xmlns="http://www.w3.org/2000/svg">
<path id="Icon" d="M3 14H2L1.35 12H0V6.975C0 6.425 0.195833 5.95833 0.5875 5.575C0.979167 5.19167 1.45 5 2 5V5V2C2 1.45 2.19583 0.979167 2.5875 0.5875C2.97917 0.195833 3.45 0 4 0H16C16.55 0 17.0208 0.195833 17.4125 0.5875C17.8042 0.979167 18 1.45 18 2V5V5C18.55 5 19.0208 5.19583 19.4125 5.5875C19.8042 5.97917 20 6.45 20 7V12H18.65L18 14H17L16.35 12H3.65L3 14V14M11 5H16V2V2V2H11V5V5M4 5H9V2H4V2V2V5V5M2 10H18V7V7V7H2V7V7V10V10M18 10V10H2V10V10V10H18V10V10V10" fill="#FF5C00"/>
</svg>
