<svg preserveAspectRatio="none" overflow="visible" style="display: block;" width="33.3333" height="33.3333" viewBox="0 0 33.3333 33.3333" fill="none" xmlns="http://www.w3.org/2000/svg">
<g id="Container">
<path id="Icon" d="M15 25H18.3333V15H15V25V25M16.6667 11.6667C17.1389 11.6667 17.5347 11.5069 17.8542 11.1875C18.1736 10.8681 18.3333 10.4722 18.3333 10C18.3333 9.52778 18.1736 9.13194 17.8542 8.8125C17.5347 8.49306 17.1389 8.33333 16.6667 8.33333C16.1944 8.33333 15.7986 8.49306 15.4792 8.8125C15.1597 9.13194 15 9.52778 15 10C15 10.4722 15.1597 10.8681 15.4792 11.1875C15.7986 11.5069 16.1944 11.6667 16.6667 11.6667V11.6667M16.6667 33.3333C14.3611 33.3333 12.1944 32.8958 10.1667 32.0208C8.13889 31.1458 6.375 29.9583 4.875 28.4583C3.375 26.9583 2.1875 25.1944 1.3125 23.1667C0.4375 21.1389 0 18.9722 0 16.6667C0 14.3611 0.4375 12.1944 1.3125 10.1667C2.1875 8.13889 3.375 6.375 4.875 4.875C6.375 3.375 8.13889 2.1875 10.1667 1.3125C12.1944 0.4375 14.3611 0 16.6667 0C18.9722 0 21.1389 0.4375 23.1667 1.3125C25.1944 2.1875 26.9583 3.375 28.4583 4.875C29.9583 6.375 31.1458 8.13889 32.0208 10.1667C32.8958 12.1944 33.3333 14.3611 33.3333 16.6667C33.3333 18.9722 32.8958 21.1389 32.0208 23.1667C31.1458 25.1944 29.9583 26.9583 28.4583 28.4583C26.9583 29.9583 25.1944 31.1458 23.1667 32.0208C21.1389 32.8958 18.9722 33.3333 16.6667 33.3333V33.3333M16.6667 30C20.3889 30 23.5417 28.7083 26.125 26.125C28.7083 23.5417 30 20.3889 30 16.6667C30 12.9444 28.7083 9.79167 26.125 7.20833C23.5417 4.625 20.3889 3.33333 16.6667 3.33333C12.9444 3.33333 9.79167 4.625 7.20833 7.20833C4.625 9.79167 3.33333 12.9444 3.33333 16.6667C3.33333 20.3889 4.625 23.5417 7.20833 26.125C9.79167 28.7083 12.9444 30 16.6667 30V30M16.6667 16.6667V16.6667V16.6667V16.6667V16.6667V16.6667V16.6667V16.6667V16.6667V16.6667" fill="#FF5C00"/>
</g>
</svg>
